<svg width="159" height="161" viewBox="0 0 159 161" fill="none" xmlns="http://www.w3.org/2000/svg">
<path fill-rule="evenodd" clip-rule="evenodd" d="M126.959 76.6343C130.674 70.3398 130.527 62.5168 126.58 56.4116C118.8 44.3762 100.981 44.8165 93.6594 57.2249L84.0404 73.526C82.0846 76.8403 77.325 76.9579 75.2469 73.7432L60.2672 50.5699C57.5077 46.3011 52.5622 43.9619 47.4828 44.523L27.7693 46.7006C13.4487 48.2825 5.73127 64.3496 13.5112 76.385C17.4578 82.4902 24.5308 85.8357 31.7953 85.0333L61.4278 81.76C65.0405 81.3609 68.558 83.0247 70.5207 86.0609C72.4834 89.0972 72.5563 92.9876 70.7091 96.118L55.5582 121.794C51.8439 128.088 51.9904 135.911 55.937 142.016C63.7169 154.052 81.5359 153.612 88.858 141.203L126.959 76.6343Z" fill="white"/>
</svg>
