<svg width="154" height="157" viewBox="0 0 154 157" fill="none" xmlns="http://www.w3.org/2000/svg">
<path fill-rule="evenodd" clip-rule="evenodd" d="M124.369 72.7175C127.882 66.3081 127.487 58.4937 123.348 52.517C115.189 40.7351 97.3932 41.7415 90.4693 54.3765L81.3733 70.9751C79.5239 74.3499 74.7705 74.6188 72.5913 71.4717L56.8824 48.7864C53.9886 44.6074 48.9713 42.4266 43.9123 43.1489L24.278 45.9521C10.0149 47.9884 2.81212 64.2927 10.9707 76.0747C15.1094 82.0514 22.2852 85.1704 29.5205 84.1374L59.0339 79.9238C62.6321 79.4101 66.2008 80.9612 68.259 83.9335C70.3172 86.9058 70.5137 90.792 68.767 93.9795L54.4399 120.124C50.9276 126.533 51.3227 134.348 55.4614 140.324C63.62 152.106 81.416 151.1 88.34 138.465L124.369 72.7175Z" fill="white"/>
</svg>
