<svg width="614" height="172" viewBox="0 0 614 172" fill="none" xmlns="http://www.w3.org/2000/svg">
<path d="M158.328 98.0205V142.054H146.037V45.3424H210.871V56.2832H158.328V87.0796H204.523V98.0205H158.328ZM233.916 45.3424V142.054H222.84V45.3424H233.916ZM278.324 71.1411C288.769 71.1411 296.739 74.7881 302.232 82.082C307.094 88.3853 309.525 96.9399 309.525 107.746C309.525 119.812 306.374 128.997 300.07 135.3C294.668 140.793 287.374 143.54 278.189 143.54C267.563 143.54 259.459 139.983 253.876 132.869C249.013 126.656 246.582 118.281 246.582 107.746C246.582 95.4991 249.779 86.0891 256.172 79.5156C261.665 73.9326 269.049 71.1411 278.324 71.1411ZM278.324 81.2715C272.02 81.2715 267.068 83.6578 263.466 88.4304C259.864 93.1129 258.063 99.5513 258.063 107.746C258.063 116.3 260.089 122.829 264.141 127.331C267.653 131.293 272.336 133.274 278.189 133.274C284.402 133.274 289.22 131.023 292.641 126.521C296.153 122.018 297.909 115.76 297.909 107.746C297.909 98.921 295.928 92.1674 291.966 87.4849C288.544 83.3427 283.997 81.2715 278.324 81.2715ZM387.718 142.054H375.157L360.974 87.4849L347.602 142.054H335.175L315.05 72.6269H327.206L341.524 126.656L354.761 72.6269H368.268L381.91 126.656L395.688 72.6269H408.114L387.718 142.054ZM417.027 70.4658H435.667V84.1081C438.008 74.0227 444.672 68.98 455.658 68.98C457.368 68.98 458.584 68.98 459.304 68.98L459.44 87.3498C457.188 86.8995 454.847 86.6744 452.416 86.6744C446.293 86.6744 442.06 87.8 439.719 90.0512C437.018 92.5726 435.667 97.12 435.667 103.694V142.054H417.027V70.4658ZM511.15 70.4658H530.195L500.749 155.021C498.678 161.054 495.932 165.196 492.51 167.447C489.088 169.789 484 170.959 477.247 170.959C471.034 170.959 466.711 170.149 464.28 168.528L467.116 155.966C470.358 156.777 473.06 157.182 475.221 157.182C478.372 157.182 481.074 156.101 483.325 153.94C485.576 151.869 486.702 149.393 486.702 146.511V145.026L460.093 70.4658H480.489L496.427 122.604L511.15 70.4658ZM603.661 45.3424V142.054H585.021V134.085C580.698 140.388 574.17 143.54 565.435 143.54C555.98 143.54 548.371 139.578 542.608 131.653C537.655 124.9 535.179 116.48 535.179 106.395C535.179 94.4186 538.331 84.9635 544.634 78.0298C550.127 71.9966 557.016 68.98 565.3 68.98C574.035 68.98 580.608 72.3118 585.021 78.9753V45.3424H603.661ZM569.487 84.2431C564.805 84.2431 561.023 86.2692 558.141 90.3214C555.26 94.3735 553.819 99.6864 553.819 106.26C553.819 112.743 555.215 118.011 558.006 122.063C560.888 126.025 564.715 128.006 569.487 128.006C574.26 128.006 578.042 126.025 580.833 122.063C583.715 118.101 585.156 112.833 585.156 106.26C585.156 99.5963 583.715 94.2835 580.833 90.3214C577.952 86.2692 574.17 84.2431 569.487 84.2431Z" fill="white"/>
<path fill-rule="evenodd" clip-rule="evenodd" d="M124.369 72.7175C127.882 66.3081 127.487 58.4937 123.348 52.517C115.189 40.7351 97.3932 41.7415 90.4693 54.3765L81.3733 70.9751C79.5239 74.3499 74.7705 74.6188 72.5913 71.4717L56.8824 48.7864C53.9886 44.6074 48.9713 42.4266 43.9123 43.1489L24.278 45.9521C10.0149 47.9884 2.81212 64.2927 10.9707 76.0747C15.1094 82.0514 22.2852 85.1704 29.5205 84.1374L59.0339 79.9238C62.6321 79.4101 66.2008 80.9612 68.259 83.9335C70.3172 86.9058 70.5137 90.792 68.767 93.9795L54.4399 120.124C50.9276 126.533 51.3227 134.348 55.4614 140.324C63.62 152.106 81.416 151.1 88.34 138.465L124.369 72.7175Z" fill="white"/>
</svg>
